<?xml version="1.0" encoding="UTF-8"?>
<svg width="24px" height="24px" viewBox="0 0 24 24" version="1.1" xmlns="http://www.w3.org/2000/svg" xmlns:xlink="http://www.w3.org/1999/xlink">
    <!-- Generator: Sketch 50.2 (55047) - http://www.bohemiancoding.com/sketch -->
    <title>Gated In</title>
    <desc>Created with Sketch.</desc>
    <defs></defs>
    <g id="Gated-In" stroke="none" stroke-width="1" fill="none" fill-rule="evenodd">
        <g id="metal-detector" transform="translate(2.000000, 1.000000)" fill="#55C968" fill-rule="nonzero">
            <path d="M0,0 L0,22 L3.8671875,22 L3.8671875,6.4453125 C5.38926953,6.4453125 15.0789375,6.4453125 15.46875,6.4453125 L15.46875,22 L19.3359375,22 L19.3359375,0 L0,0 Z M12.890625,5.15625 L6.4453125,5.15625 L6.4453125,3.8671875 L12.890625,3.8671875 L12.890625,5.15625 Z M18.046875,20.7109375 L16.7578125,20.7109375 L16.7578125,5.15625 L14.1796875,5.15625 L14.1796875,2.578125 L5.15625,2.578125 L5.15625,5.15625 L2.578125,5.15625 L2.578125,20.7109375 L1.2890625,20.7109375 L1.2890625,1.2890625 L18.046875,1.2890625 L18.046875,20.7109375 Z" id="Shape"></path>
            <path d="M11.2742266,10.7431328 C11.4808203,10.4354766 11.6015625,10.0656016 11.6015625,9.66796875 C11.6015625,8.60178516 10.7341523,7.734375 9.66796875,7.734375 C8.60178516,7.734375 7.734375,8.60178516 7.734375,9.66796875 C7.734375,10.0656016 7.85511719,10.4354766 8.06171094,10.7431328 C7.09667578,11.3005234 6.4453125,12.3428594 6.4453125,13.5351562 L6.4453125,18.0898438 L7.734375,18.0898438 L7.734375,22 L11.6015625,22 L11.6015625,18.0898438 L12.890625,18.0898438 L12.890625,13.5351562 C12.890625,12.3428594 12.2392617,11.3005234 11.2742266,10.7431328 Z M9.66796875,9.0234375 C10.0233633,9.0234375 10.3125,9.31257422 10.3125,9.66796875 C10.3125,10.0233633 10.0233633,10.3125 9.66796875,10.3125 C9.31257422,10.3125 9.0234375,10.0233633 9.0234375,9.66796875 C9.0234375,9.31257422 9.31257422,9.0234375 9.66796875,9.0234375 Z M11.6015625,16.8007812 L10.3125,16.8007812 L10.3125,20.7109375 L9.0234375,20.7109375 L9.0234375,16.8007812 L7.734375,16.8007812 L7.734375,13.5351562 C7.734375,12.4689727 8.60178516,11.6015625 9.66796875,11.6015625 C10.7341523,11.6015625 11.6015625,12.4689727 11.6015625,13.5351562 L11.6015625,16.8007812 Z" id="Shape"></path>
        </g>
    </g>
</svg>