<?xml version="1.0" encoding="UTF-8"?>
<svg width="24px" height="24px" viewBox="0 0 24 24" version="1.1" xmlns="http://www.w3.org/2000/svg" xmlns:xlink="http://www.w3.org/1999/xlink">
    <!-- Generator: Sketch 50.2 (55047) - http://www.bohemiancoding.com/sketch -->
    <title>Reported and Waiting</title>
    <desc>Created with Sketch.</desc>
    <defs></defs>
    <g id="Reported-and-Waiting" stroke="none" stroke-width="1" fill="none" fill-rule="evenodd">
        <g id="id" transform="translate(2.000000, 1.000000)" fill="#DD9B13" fill-rule="nonzero">
            <path d="M8.43337917,1.46666667 C7.82585833,1.46666667 7.33337917,1.95914583 7.33337917,2.56666667 C7.33402083,3.1739125 7.82613333,3.666025 8.43337917,3.66666667 C9.0409,3.66666667 9.53337917,3.1741875 9.53337917,2.56666667 C9.53337917,1.95914583 9.0409,1.46666667 8.43337917,1.46666667 Z M8.43337917,2.93333333 C8.2308875,2.93333333 8.0667125,2.76915833 8.0667125,2.56666667 C8.0669875,2.36426667 8.23097917,2.200275 8.43337917,2.2 C8.63587083,2.2 8.80004583,2.364175 8.80004583,2.56666667 C8.80004583,2.76915833 8.63587083,2.93333333 8.43337917,2.93333333 Z" id="Shape"></path>
            <path d="M14.3000458,5.86666667 L2.5667125,5.86666667 C2.36422083,5.86666667 2.20004583,6.03084167 2.20004583,6.23333333 L2.20004583,14.3 C2.20004583,14.5024917 2.36422083,14.6666667 2.5667125,14.6666667 L14.3000458,14.6666667 C14.5025375,14.6666667 14.6667125,14.5024917 14.6667125,14.3 L14.6667125,6.23333333 C14.6667125,6.03084167 14.5025375,5.86666667 14.3000458,5.86666667 Z M10.2667125,13.9333333 L6.60004583,13.9333333 L6.60004583,12.0642042 C6.60064167,11.4767125 7.07675833,11.0005958 7.66425,11 L9.20255417,11 C9.79004583,11.0005958 10.2661625,11.4767125 10.2667583,12.0642042 L10.2667583,13.9333333 L10.2667125,13.9333333 Z M7.33337917,9.16666667 C7.33337917,8.55914583 7.82585833,8.06666667 8.43337917,8.06666667 C9.0409,8.06666667 9.53337917,8.55914583 9.53337917,9.16666667 C9.5327375,9.7739125 9.040625,10.266025 8.43337917,10.2666667 C7.82585833,10.2666667 7.33337917,9.7741875 7.33337917,9.16666667 Z M13.9333792,13.9333333 L11.0000458,13.9333333 L11.0000458,12.0642042 C10.9976625,11.3043333 10.5169167,10.6282917 9.79994583,10.376575 C10.4749333,9.6218375 10.4102625,8.46280417 9.655525,7.78781667 C8.9007875,7.11282917 7.74175417,7.1775 7.06676667,7.9322375 C6.44439583,8.62817083 6.44439583,9.68064167 7.06676667,10.376575 C6.34979583,10.6283375 5.86909583,11.3043333 5.8667125,12.0642042 L5.8667125,13.9333333 L2.93337917,13.9333333 L2.93337917,6.6 L13.9333792,6.6 L13.9333792,13.9333333 Z" id="Shape"></path>
            <rect id="Rectangle-path" x="2.20004583" y="15.4" width="5.5" height="1"></rect>
            <rect id="Rectangle-path" x="8.43337917" y="15.4" width="2.2" height="1"></rect>
            <rect id="Rectangle-path" x="2.20004583" y="17.6" width="8.8" height="1"></rect>
            <rect id="Rectangle-path" x="11.3667125" y="15.4" width="1.46666667" height="1"></rect>
            <path d="M19.3259458,15.1407667 L18.2259458,14.0407667 C18.0829,13.8975833 17.8508917,13.8974917 17.7077083,14.0405375 C17.6980375,14.0502083 17.6889625,14.0603833 17.6804375,14.0710167 L16.8667125,15.0881042 L16.8667125,2.56666667 C16.8667125,2.364175 16.7025375,2.2 16.5000458,2.2 L11.0435417,2.2 L11.3609833,0.431475 C11.3967792,0.232145833 11.2641833,0.041525 11.0648083,0.005775 C11.04345,0.001925 11.0217708,0 11.0000458,0 L5.8667125,0 C5.664175,0 5.5,0.164175 5.5,0.3667125 C5.5,0.3884375 5.501925,0.410116667 5.505775,0.431475 L5.82321667,2.2 L0.3667125,2.2 C0.164220833,2.2 4.58333333e-05,2.364175 4.58333333e-05,2.56666667 L4.58333333e-05,21.6333333 C4.58333333e-05,21.835825 0.164220833,22 0.3667125,22 L16.5000458,22 C16.7025375,22 16.8667125,21.835825 16.8667125,21.6333333 L16.8667125,18.5675875 L19.346525,15.6368667 C19.469725,15.4913 19.4607417,15.2756083 19.3259458,15.1407667 Z M10.5617417,0.733333333 L9.90362083,4.4 L6.9631375,4.4 L6.30501667,0.733333333 L10.5617417,0.733333333 Z M16.1333792,21.2666667 L0.733379167,21.2666667 L0.733379167,2.93333333 L5.95480417,2.93333333 L6.29548333,4.831475 C6.32683333,5.0062375 6.47890833,5.13337917 6.65642083,5.13333333 L10.2102917,5.13333333 C10.38785,5.13337917 10.5398792,5.0062375 10.5712292,4.831475 L10.9119083,2.93333333 L16.1333792,2.93333333 L16.1333333,16.0047708 L15.0029,17.4177667 L14.1925667,16.6074333 C14.049475,16.46425 13.817375,16.4642042 13.6742375,16.6072958 C13.6741917,16.6073417 13.6741458,16.6073875 13.6741,16.6074333 L12.5741,17.7074333 C12.4309167,17.850525 12.4308708,18.082625 12.5739625,18.2257625 C12.5740083,18.2258083 12.5740542,18.2258542 12.5741,18.2259 L14.7741,20.4259 C14.84285,20.4946958 14.9361208,20.5333333 15.0333333,20.5333333 L15.04855,20.5329667 C15.1509417,20.5287042 15.2469167,20.4817708 15.3131458,20.4035333 L16.1333333,19.43425 L16.1333792,21.2666667 Z M15.0108292,19.6256042 L13.3518458,17.9666667 L13.9333792,17.3851333 L14.7741458,18.2259 C14.8481667,18.2991875 14.9495958,18.3379625 15.0536375,18.3327833 C15.1578167,18.3270083 15.2545708,18.2771417 15.3197,18.19565 L17.9971917,14.8489 L18.5688708,15.4207625 L15.0108292,19.6256042 Z" id="Shape"></path>
            <rect id="Rectangle-path" x="2.20004583" y="19.8" width="3.3" height="1"></rect>
            <rect id="Rectangle-path" x="6.23337917" y="19.8" width="5.86666667" height="1"></rect>
        </g>
    </g>
</svg>