<?xml version="1.0" encoding="UTF-8"?>
<svg width="24px" height="24px" viewBox="0 0 24 24" version="1.1" xmlns="http://www.w3.org/2000/svg" xmlns:xlink="http://www.w3.org/1999/xlink">
    <!-- Generator: Sketch 50.2 (55047) - http://www.bohemiancoding.com/sketch -->
    <title>Loading</title>
    <desc>Created with Sketch.</desc>
    <defs></defs>
    <g id="Loading" stroke="none" stroke-width="1" fill="none" fill-rule="evenodd">
        <g id="sand-clock" transform="translate(5.000000, 1.000000)" fill="#24B9CE" fill-rule="nonzero">
            <path d="M12.8333477,19.3343477 L12.8333477,15.8720977 C12.8333477,14.6831953 12.32,13.5510977 11.4244453,12.7673477 L9.40409766,11 L11.4244453,9.23265234 C12.320043,8.44890234 12.8333477,7.31680469 12.8333477,6.12790234 L12.8333477,2.66565234 C13.3659023,2.47590234 13.75,1.97175 13.75,1.375 C13.75,0.616902344 13.1330977,0 12.375,0 L1.375,0 C0.616902344,0 0,0.616902344 0,1.375 C0,1.97175 0.384097656,2.47590234 0.916652344,2.66565234 L0.916652344,6.12790234 C0.916652344,7.31680469 1.43,8.44890234 2.32555469,9.23265234 L4.34590234,11 L2.32555469,12.7673477 C1.42995703,13.5510977 0.916652344,14.6831953 0.916652344,15.8720977 L0.916652344,19.3343477 C0.384097656,19.5240977 0,20.02825 0,20.625 C0,21.3830977 0.616902344,22 1.375,22 L12.375,22 C13.1330977,22 13.75,21.3830977 13.75,20.625 C13.75,20.02825 13.3659023,19.5240977 12.8333477,19.3343477 Z M11.9166953,19.25 L1.83334766,19.25 L1.83334766,15.8720977 C1.83334766,14.9471953 2.233,14.0671953 2.92875,13.4575977 L5.34325,11.3446953 C5.44315234,11.2575977 5.5,11.132043 5.5,11.000043 C5.5,10.868043 5.44315234,10.7424453 5.34325,10.6553906 L2.92875,8.54248828 C2.233,7.93289062 1.83334766,7.05289062 1.83334766,6.12798828 L1.83334766,2.75 L11.9166953,2.75 L11.9166953,6.12790234 C11.9166953,7.05280469 11.517043,7.93280469 10.821293,8.54240234 L8.40679297,10.6553047 C8.30684766,10.7424023 8.25,10.868 8.25,11 C8.25,11.132 8.30684766,11.2575977 8.40675,11.3446523 L10.82125,13.4575547 C11.5179023,14.0671523 11.9166523,14.9471523 11.9166523,15.8720547 L11.9166953,19.25 Z" id="Shape"></path>
            <path d="M10.9000977,17.589 L7.23344531,13.0056523 C7.05929297,12.7884023 6.69169531,12.7884023 6.51754297,13.0056523 L2.85089062,17.589 C2.74089062,17.7265 2.71979297,17.9153477 2.79589062,18.0739023 C2.87198828,18.2325 3.03239062,18.3333047 3.20839062,18.3333047 L10.5417383,18.3333047 C10.7177383,18.3333047 10.8781406,18.232457 10.9551406,18.0739023 C11.0311523,17.9153477 11.0100977,17.7265 10.9000977,17.589 Z" id="Shape"></path>
            <path d="M9.13184766,7.61659766 C9.06125,7.44519531 8.8935,7.33334766 8.70834766,7.33334766 L5.04169531,7.33334766 C4.85654297,7.33334766 4.68879297,7.44519531 4.61819531,7.61659766 C4.54669531,7.788 4.58609766,7.98419531 4.71719531,8.11619531 L6.55054297,9.94954297 C6.64039062,10.0384453 6.75769531,10.0833906 6.87504297,10.0833906 C6.99239062,10.0833906 7.10969531,10.0384883 7.19954297,9.94954297 L9.03289062,8.11619531 C9.16390234,7.98509766 9.20334766,7.788 9.13184766,7.61659766 Z" id="Shape"></path>
        </g>
    </g>
</svg>