<?xml version="1.0" encoding="UTF-8"?>
<svg width="24px" height="24px" viewBox="0 0 24 24" version="1.1" xmlns="http://www.w3.org/2000/svg" xmlns:xlink="http://www.w3.org/1999/xlink">
    <!-- Generator: Sketch 50.2 (55047) - http://www.bohemiancoding.com/sketch -->
    <title>Update- Circle</title>
    <desc>Created with Sketch.</desc>
    <defs></defs>
    <g id="Update--Circle" stroke="none" stroke-width="1" fill="none" fill-rule="evenodd">
        <g id="search/icon-copy">
            <circle id="Oval" fill="#5A3094" cx="12" cy="12" r="12"></circle>
            <g id="Group" transform="translate(12.000000, 12.052632) rotate(-270.000000) translate(-12.000000, -12.052632) translate(3.000000, 4.000000)" stroke="#FFFFFF" stroke-linecap="round" stroke-linejoin="round" stroke-width="1.2">
                <g id="Group-3" transform="translate(9.473684, 4.263158) scale(-1, 1) translate(-9.473684, -4.263158) translate(0.947368, 0.000000)">
                    <path d="M16.1324456,5.26172945 C15.1778232,2.20937358 12.3878431,0 9.09473684,0 C5.01364322,0 1.70526316,3.39321032 1.70526316,7.57894737" id="Oval-3"></path>
                    <polyline id="Path-11" points="0 5.82995951 1.70526316 8.16194332 3.97894737 6.41295547"></polyline>
                </g>
                <g id="Group-3-Copy" transform="translate(8.526316, 11.842105) scale(-1, 1) rotate(-180.000000) translate(-8.526316, -11.842105) translate(0.000000, 7.578947)">
                    <path d="M16.1324456,5.26172945 C15.1778232,2.20937358 12.3878431,0 9.09473684,0 C5.01364322,0 1.70526316,3.39321032 1.70526316,7.57894737" id="Oval-3"></path>
                    <polyline id="Path-11" points="0 5.82995951 1.70526316 8.16194332 3.97894737 6.41295547"></polyline>
                </g>
            </g>
        </g>
    </g>
</svg>